<?xml version="1.0" encoding="UTF-8" standalone="no"?>
<!-- Created with Inkscape (http://www.inkscape.org/) -->

<svg
   width="71.000008"
   height="28"
   viewBox="0 0 18.785418 7.4083332"
   version="1.1"
   id="svg1"
   xmlns="http://www.w3.org/2000/svg"
   xmlns:svg="http://www.w3.org/2000/svg">
  <defs
     id="defs1" />
  <g
     id="layer1"
     style="display:inline;opacity:1"
     transform="translate(-2.5135434,-2.5135415)">
    <g
       id="g6"
       style="display:inline;opacity:1"
       transform="translate(13.229168,7.1437498)">
      <path
         style="fill:none;fill-opacity:1;stroke:#000000;stroke-width:0.264583px;stroke-linecap:round;stroke-linejoin:round;stroke-opacity:1"
         d="m -9.7895845,2.2e-7 -5e-7,-4.49791672 4.4979182,-4e-7 v 2.9104168 h 1.0583334 V -4.497917 H 6.3499999 l 1.0583334,3e-7 -10e-8,2.1166668 H 6.3499998 v 0.7937498 h 1.5875 l 10e-8,4.2333333 H 6.6145832 V 0.79375005 l 0.7937497,-1.3e-7 4e-7,-0.79375005 -1.5875002,1e-8 4e-7,0.7937501 0.7937497,7e-8 V 2.6458332 l -15.6104162,3e-7 V 2.1166668 h -0.5291665 l -2e-7,-0.7937502 h -0.5291663 v 0.7937502 h 1.058333 v 0.5291667 l -1.5875,10e-8 V 0.79374993 l 1.5875,5e-8 10e-8,-0.79374976 z"
         id="path6" />
      <path
         style="display:inline;opacity:1;fill:none;stroke:#000000;stroke-width:0.264583;stroke-linecap:round;stroke-linejoin:round;stroke-dasharray:none;stroke-opacity:1"
         d="m 5.8208336,-3.1749999 0.5291663,-10e-8 v -1.3229171 l -1.0583334,10e-8 v 1.3229171"
         id="path1-6-6-3" />
      <path
         style="display:inline;opacity:1;fill:none;stroke:#000000;stroke-width:0.264583;stroke-linecap:round;stroke-linejoin:round;stroke-dasharray:none;stroke-opacity:1"
         d="m 7.4083333,-1.3e-7 -4e-7,0.79375003 -0.7937497,10e-8 v 1.8520832 l 1.3229168,-1e-7 V -1.1e-7"
         id="path1-6-6" />
      <path
         style="display:inline;opacity:1;fill:none;stroke:#000000;stroke-width:0.264583;stroke-linecap:round;stroke-linejoin:round;stroke-dasharray:none;stroke-opacity:1"
         d="m 5.8208331,-1.2e-7 4e-7,0.79375008 0.7937497,7e-8 V 2.6458332 l -1.3229168,-1e-7 V -1e-7"
         id="path1-6" />
      <path
         style="fill:none;stroke:#000000;stroke-width:0.264583;stroke-linecap:round;stroke-linejoin:round;stroke-dasharray:none;stroke-opacity:1"
         d="M 3.7041666,-1.5875001 H 5.2916665 V -4.497917 H 3.1749999 v 2.9104169"
         id="path1-86" />
      <path
         style="fill:none;stroke:#000000;stroke-width:0.264583;stroke-linecap:round;stroke-linejoin:round;stroke-dasharray:none;stroke-opacity:1"
         d="M -1.3e-7,-1.5875001 V -4.497917 H 3.1749999 v 2.9104169 m -0.5291667,0 H 0.52916653"
         id="path1-8-9" />
      <path
         style="fill:none;stroke:#000000;stroke-width:0.264583;stroke-linecap:round;stroke-linejoin:round;stroke-dasharray:none;stroke-opacity:1"
         d="M 3.1749999,-1e-7 H 5.2916665 V 2.6458332 H 2.6458332 V -8.125e-8"
         id="path1" />
      <path
         style="fill:none;stroke:#000000;stroke-width:0.264583;stroke-linecap:round;stroke-linejoin:round;stroke-dasharray:none;stroke-opacity:1"
         d="M 2.1166665,-8.1249999e-8 H -9.9999999e-8 V 2.6458332 H 2.6458332 V -8.1249999e-8"
         id="path1-8" />
      <path
         style="fill:none;stroke:#000000;stroke-width:0.264583;stroke-linecap:round;stroke-linejoin:round;stroke-dasharray:none;stroke-opacity:1"
         d="M -2.1166666,0 H 0 V 2.6458333 H -2.6458333 V 0"
         id="path1-3" />
      <path
         style="fill:none;stroke:#000000;stroke-width:0.264583;stroke-linecap:round;stroke-linejoin:round;stroke-dasharray:none;stroke-opacity:1"
         d="m -3.1749999,1e-7 h -2.1166666 v 2.6458332 h 2.6458333 L -2.6458333,0"
         id="path1-4-3-8-9" />
      <path
         style="opacity:1;fill:none;stroke:#000000;stroke-width:0.264583;stroke-linecap:round;stroke-linejoin:round;stroke-dasharray:none;stroke-opacity:1"
         d="M -3.9687498,-1.5875001 H -4.2333334 V -4.497917 H -1.3e-7 v 2.9104169 h -0.2645831 m -0.5291667,0 H -3.4395832"
         id="path1-8-9-0-6-5" />
      <path
         style="fill:none;stroke:#000000;stroke-width:0.264583;stroke-linecap:round;stroke-linejoin:round;stroke-dasharray:none;stroke-opacity:1"
         d="M -5.8208331,2.2e-7 H -7.9374997 V 2.6458334 h 2.6458333 L -5.2916665,1e-7"
         id="path1-4-3-8" />
      <path
         style="fill:none;fill-opacity:1;stroke:#000000;stroke-width:0.264583;stroke-linecap:round;stroke-linejoin:round;stroke-dasharray:none;stroke-opacity:1"
         d="M -9.2604165,-1.5875001 H -9.7895847 V -4.497917 h 4.4979179 v 2.9104169 h -0.2645831 m -0.5291667,0 h -2.6458333"
         id="path1-8-9-0-6" />
      <path
         style="display:inline;opacity:1;fill:none;stroke:#000000;stroke-width:0.264583;stroke-linecap:round;stroke-linejoin:round;stroke-dasharray:none;stroke-opacity:1"
         d="m -8.995833,1.3229166 h -1.058333 v 0.7937502 h 1.058333 v 0.5291667 h -1.5875 V 0.79374993 l 1.5875,5e-8"
         id="path4-6-2-6-0-9" />
      <path
         style="display:inline;fill:none;stroke:#000000;stroke-width:0.264583;stroke-linecap:round;stroke-linejoin:round;stroke-dasharray:none;stroke-opacity:1"
         d="m 6.3499998,-2.9104166 v -1.5875001 h 1.0583335 l -10e-8,2.1166668 H 6.8791665 l 7e-7,-1.3229167 -7e-7,1.3229167 H 6.3499998"
         id="path4-6-2-6-0-9-2" />
      <path
         style="display:inline;opacity:1;fill:none;stroke:#000000;stroke-width:0.264583;stroke-linecap:round;stroke-linejoin:round;stroke-dasharray:none;stroke-opacity:1"
         d="m -8.995833,1.3229166 h -0.5291667 v 0.7937502 h 0.5291667 l -2e-7,-0.2645835"
         id="path4-6-2-6-0-7-0" />
    </g>
    <g
       id="g2"
       style="stroke-width:0.264583;stroke-dasharray:none"
       transform="translate(-10.468568,-1.1999799)">
      <g
         id="g4"
         style="stroke-width:0.264583;stroke-dasharray:none"
         transform="translate(7.6729151,0.66145799)">
        <ellipse
           style="display:inline;opacity:0.668;fill:#000002;fill-opacity:1;stroke:none;stroke-width:0.264583;stroke-linecap:round;stroke-linejoin:round;stroke-dasharray:none;stroke-dashoffset:0"
           id="path2-2"
           cx="24.756069"
           cy="3.0520601"
           rx="0.79374999"
           ry="0.52916664" />
        <path
           id="path2-3"
           style="display:inline;fill:#00ff02;fill-opacity:1;stroke:#000000;stroke-width:0.264583;stroke-linecap:round;stroke-linejoin:round;stroke-dasharray:none"
           d="m 25.417527,1.7291467 c 0,0.7045673 -0.661458,1.190625 -0.661458,1.190625 0,0 -0.661458,-0.4860577 -0.661458,-1.190625 0,-0.3533395 0.296145,-0.6614581 0.661458,-0.6614583 0.365313,2e-7 0.661458,0.3081188 0.661458,0.6614583 z" />
        <circle
           style="fill:#000002;fill-opacity:1;stroke:none;stroke-width:0.264583;stroke-linecap:round;stroke-linejoin:round;stroke-dasharray:none;stroke-dashoffset:0"
           id="path2"
           cx="24.756069"
           cy="1.7291467"
           r="0.26458332" />
      </g>
    </g>
  </g>
</svg>
