<?xml version="1.0" encoding="UTF-8" standalone="no"?>
<!-- Created with Inkscape (http://www.inkscape.org/) -->

<svg
   width="128"
   height="128"
   viewBox="0 0 33.866666 33.866666"
   version="1.1"
   id="svg1"
   inkscape:version="1.3.2 (091e20e, 2023-11-25, custom)"
   sodipodi:docname="logo.svg"
   inkscape:export-filename="logo.png"
   inkscape:export-xdpi="768"
   inkscape:export-ydpi="768"
   xmlns:inkscape="http://www.inkscape.org/namespaces/inkscape"
   xmlns:sodipodi="http://sodipodi.sourceforge.net/DTD/sodipodi-0.dtd"
   xmlns="http://www.w3.org/2000/svg"
   xmlns:svg="http://www.w3.org/2000/svg">
  <sodipodi:namedview
     id="namedview1"
     pagecolor="#ffffff"
     bordercolor="#666666"
     borderopacity="1.0"
     inkscape:showpageshadow="2"
     inkscape:pageopacity="0.0"
     inkscape:pagecheckerboard="0"
     inkscape:deskcolor="#d1d1d1"
     inkscape:document-units="px"
     inkscape:zoom="3.7846085"
     inkscape:cx="60.111898"
     inkscape:cy="83.892429"
     inkscape:window-width="1920"
     inkscape:window-height="986"
     inkscape:window-x="-11"
     inkscape:window-y="-11"
     inkscape:window-maximized="1"
     inkscape:current-layer="layer1" />
  <defs
     id="defs1" />
  <g
     inkscape:label="Layer 1"
     inkscape:groupmode="layer"
     id="layer1">
    <path
       style="fill:none;stroke:#ffffff;stroke-width:6.35;stroke-linecap:round;stroke-linejoin:round;stroke-dasharray:none;stroke-opacity:1"
       d="m 21.531295,3.3832471 c 0,0 -8.773157,-1.0041101 -11.758996,4.1278035 -2.985841,5.1319134 -1.608501,5.8616974 3.056876,8.5676154 4.665376,2.705917 6.627645,2.657571 6.159701,6.251455 -0.70506,5.414975 -6.276969,4.481572 -10.195885,2.615423"
       id="path1-8"
       sodipodi:nodetypes="csssc" />
    <path
       style="fill:none;stroke:#ffffff;stroke-width:6.35;stroke-linecap:round;stroke-linejoin:round;stroke-dasharray:none;stroke-opacity:1"
       d="m 21.9998,11.071956 c 0,0 0.560127,2.053329 -2.519022,2.426558 -3.079148,0.373231 -4.905187,-0.74646 -4.27209,-2.985841 0.633097,-2.2393804 2.792087,-4.1055308 4.791741,-1.7728426 1.999652,2.3326886 4.962378,3.3204006 4.284985,11.3448476 -0.688055,8.150734 -3.962337,11.664136 -13.199782,10.077911"
       id="path2-6"
       sodipodi:nodetypes="cssssc" />
    <path
       style="fill:none;stroke:#000000;stroke-width:2.11667;stroke-linecap:round;stroke-linejoin:round;stroke-dasharray:none;stroke-opacity:1"
       d="m 21.531295,3.3832471 c 0,0 -8.773157,-1.0041101 -11.7589968,4.1278035 -2.985841,5.1319134 -1.6085004,5.8616974 3.0568768,8.5676154 4.665376,2.705917 6.627645,2.657571 6.159701,6.251455 -0.70506,5.414975 -6.276969,4.481572 -10.195885,2.615423"
       id="path1"
       sodipodi:nodetypes="csssc" />
    <path
       style="fill:none;stroke:#000000;stroke-width:2.11667;stroke-linecap:round;stroke-linejoin:round;stroke-dasharray:none;stroke-opacity:1"
       d="m 21.9998,11.071956 c 0,0 0.560127,2.053329 -2.519022,2.426558 -3.079148,0.373231 -4.905187,-0.74646 -4.27209,-2.985841 0.633097,-2.2393804 2.792087,-4.1055308 4.791741,-1.7728426 1.999652,2.3326886 4.962378,3.3204006 4.284985,11.3448476 -0.688055,8.150734 -3.962337,11.664136 -13.199782,10.077911"
       id="path2"
       sodipodi:nodetypes="cssssc" />
  </g>
</svg>
